<?xml version="1.0" encoding="utf-8"?>
<!-- Generator: Adobe Illustrator 25.0.1, SVG Export Plug-In . SVG Version: 6.00 Build 0)  -->
<svg version="1.1" id="图层_1" xmlns="http://www.w3.org/2000/svg" xmlns:xlink="http://www.w3.org/1999/xlink" x="0px" y="0px"
	 viewBox="0 0 450 450" style="enable-background:new 0 0 450 450;" xml:space="preserve">
<style type="text/css">
	.st0{fill:#495BFF;}
	.st1{fill:#FFFFFF;}
	.st2{fill:#0E1B40;}
</style>
<rect x="402.1" y="-359.7" class="st0" width="801.6" height="274"/>
<rect x="-0.2" class="st0" width="450" height="450"/>
<g>
	<g>
		<path class="st1" d="M730.1-201.9c0,16.9-13.7,28.6-30.7,28.6h-40.1c-1,0-1.8-0.8-1.8-1.8v-95c0-1,0.8-1.8,1.8-1.8h37.1
			c16.6,0,30,11.3,30,27.7c0,8.5-3.5,15.1-9.3,19.7C725-220,730.1-212.2,730.1-201.9z M676.9-253.8v21.7h19.4
			c6.1,0,10.6-4.6,10.6-10.9s-4.4-10.9-10.6-10.9L676.9-253.8L676.9-253.8z M710.8-203.2c0-6.6-4.8-11.5-11.4-11.5h-22.4v23.2h22.4
			C706-191.5,710.8-196.4,710.8-203.2z"/>
		<path class="st1" d="M742.6-263.3c0-6.1,5.1-11.3,11.1-11.3c6.2,0,11.3,5.2,11.3,11.3s-5.1,11.1-11.3,11.1
			C747.7-252.2,742.6-257.3,742.6-263.3z M746.5-243.8h14.6c1,0,1.8,0.8,1.8,1.8v66.9c0,1-0.8,1.8-1.8,1.8h-14.6
			c-1,0-1.8-0.8-1.8-1.8V-242C744.7-243,745.5-243.8,746.5-243.8z"/>
		<path class="st1" d="M807.2-226.3v29.3c0,7.1,4.8,7.7,14,7.3c1,0,1.9,0.8,1.9,1.8v13c0,0.9-0.7,1.7-1.6,1.8
			c-24.2,2.3-32.5-5.2-32.5-23.8v-29.3h-10.5c-1,0-1.8-0.8-1.8-1.8V-242c0-1,0.8-1.8,1.8-1.8H789v-12c0-3.1,2.1-5.9,5.1-6.8
			l10.8-3.2c1.1-0.3,2.3,0.5,2.3,1.7v20.3h14.1c1,0,1.8,0.8,1.8,1.8v13.9c0,1-0.8,1.8-1.8,1.8L807.2-226.3L807.2-226.3z"/>
		<path class="st1" d="M886.9-179.4L856.5-218v42.9c0,1-0.8,1.8-1.8,1.8h-15.9c-1,0-1.8-0.8-1.8-1.8v-95c0-1,0.8-1.8,1.8-1.8h15.9
			c1,0,1.8,0.8,1.8,1.8v43.3l30.4-38.9c3-3.9,7.7-6.2,12.6-6.2h11c1.5,0,2.3,1.7,1.4,2.9l-35.7,46.6l35.7,46.3
			c0.9,1.2,0.1,2.9-1.4,2.9h-11C894.6-173.3,889.9-175.6,886.9-179.4z"/>
		<path class="st1" d="M954.2-187.8c6.4,0,11.6-2.4,14.8-5.9c0.6-0.6,1.5-0.8,2.2-0.4l11.6,6.7c0.9,0.5,1.2,1.8,0.5,2.6
			c-6.7,8.6-16.8,13.4-29.5,13.4c-23.7,0-38.6-16.2-38.6-37.2s15.1-37.2,37.2-37.2c20.8,0,35.6,16.5,35.6,37.2
			c0,2.7-0.3,5.1-0.7,7.5h-53.1C936.9-191.8,944.6-187.8,954.2-187.8z M970-215.2c-2.2-10.1-9.9-14.2-17.5-14.2
			c-9.7,0-16.3,5.2-18.5,14.2H970z"/>
		<path class="st1" d="M1038.5-187.8c6.4,0,11.6-2.4,14.8-5.9c0.6-0.6,1.5-0.8,2.2-0.4l11.6,6.7c0.9,0.5,1.2,1.8,0.5,2.6
			c-6.7,8.6-16.8,13.4-29.5,13.4c-23.7,0-38.6-16.2-38.6-37.2s15.1-37.2,37.2-37.2c20.8,0,35.6,16.5,35.6,37.2
			c0,2.7-0.3,5.1-0.7,7.5h-53.1C1021.2-191.8,1028.9-187.8,1038.5-187.8z M1054.3-215.2c-2.2-10.1-9.9-14.2-17.5-14.2
			c-9.7,0-16.3,5.2-18.5,14.2H1054.3z"/>
		<path class="st1" d="M1161.9-208.6c0,21-15.5,37.2-34.4,37.2c-10.3,0-17.8-3.8-22.8-10.3v34.7c0,1-0.8,1.8-1.8,1.8h-14.6
			c-1,0-1.8-0.8-1.8-1.8v-95c0-1,0.8-1.8,1.8-1.8h14.6c1,0,1.8,0.8,1.8,1.8v6.5c5.1-6.5,12.5-10.3,22.8-10.3
			C1146.5-245.7,1161.9-229.5,1161.9-208.6z M1143.8-208.6c0-11.8-8.3-19.9-19.6-19.9c-11.1,0-19.4,8-19.4,19.9s8.3,19.9,19.4,19.9
			C1135.5-188.7,1143.8-196.7,1143.8-208.6z"/>
	</g>
	<g>
		<path class="st1" d="M555.1-141.9l-78.4-45.3c-2.8-1.6-4.5-4.5-4.5-7.7v-90.6c0-1.4-1.5-2.2-2.7-1.5l-16,9.3
			c-6.1,3.5-9.8,10-9.8,17v76.2c0,7,3.7,13.5,9.8,17l65.9,38.1c6.1,3.5,13.5,3.5,19.6,0l16-9.3C556.3-139.5,556.3-141.2,555.1-141.9
			z"/>
		<path class="st1" d="M491-195.4l33.8,19.6c2.8,1.6,6.2,1.6,8.9,0l33.8-19.6c2.8-1.6,4.4-4.5,4.4-7.7v-39.1c0-3.2-1.7-6.1-4.4-7.7
			l-33.8-19.6c-2.8-1.6-6.2-1.6-8.9,0l-8.4,4.9c-0.6,0.3-1.3-0.1-1.3-0.8l0-44.7c0-1.4-1.5-2.2-2.7-1.5L491-299.3
			c-2.8,1.6-4.4,4.5-4.5,7.7l-0.1,88.5C486.5-199.9,488.2-197,491-195.4z M510.6-230.4c0-1.9,1-3.7,2.7-4.6l13.3-7.7
			c1.7-1,3.7-1,5.3,0l13.4,7.7c1.6,1,2.7,2.7,2.7,4.6v15.5c0,1.9-1,3.7-2.7,4.6l-13.4,7.7c-1.6,1-3.7,1-5.3,0l-13.3-7.7
			c-1.7-1-2.7-2.7-2.7-4.6V-230.4z"/>
		<path class="st1" d="M605-277.8l-65.9-38.1c-2.8-1.6-5.8-2.5-8.9-2.6c-0.5,0-0.9,0.4-0.9,0.9v27.9c0,0.6,0.3,1.2,0.9,1.5
			l51.7,29.9c2.8,1.6,4.4,4.5,4.4,7.7v55.7c0,3.2-1.7,6.1-4.4,7.7l-35.6,20.6c-1.2,0.7-1.2,2.4,0,3.1l24,13.9c1.1,0.6,2.5,0.6,3.6,0
			l31.2-18c6-3.5,9.8-10,9.8-17v-76.2C614.7-267.8,611-274.3,605-277.8z"/>
	</g>
</g>
<g>
	<g>
		<path class="st2" d="M-169.5-201.9c0,16.9-13.7,28.6-30.7,28.6h-40.1c-1,0-1.8-0.8-1.8-1.8v-95.1c0-1,0.8-1.8,1.8-1.8h37.1
			c16.6,0,30,11.3,30,27.8c0,8.4-3.5,15.1-9.3,19.7C-174.6-220-169.5-212.2-169.5-201.9z M-222.6-253.8v21.7h19.4
			c6.1,0,10.6-4.7,10.6-10.9s-4.4-10.8-10.6-10.8L-222.6-253.8L-222.6-253.8z M-188.8-203.2c0-6.6-4.8-11.6-11.4-11.6h-22.4v23.2
			h22.4C-193.6-191.5-188.8-196.4-188.8-203.2z"/>
		<path class="st2" d="M-157-263.3c0-6.1,5.1-11.3,11.1-11.3c6.2,0,11.3,5.2,11.3,11.3s-5.1,11.1-11.3,11.1
			C-151.9-252.2-157-257.3-157-263.3z M-153.1-243.8h14.6c1,0,1.8,0.8,1.8,1.8v66.9c0,1-0.8,1.8-1.8,1.8h-14.6c-1,0-1.8-0.8-1.8-1.8
			V-242C-154.9-243-154.1-243.8-153.1-243.8z"/>
		<path class="st2" d="M-92.4-226.3v29.3c0,7.1,4.8,7.7,14,7.3c1-0.1,1.9,0.8,1.9,1.8v13c0,0.9-0.7,1.7-1.6,1.8
			c-24.2,2.3-32.5-5.2-32.5-23.8v-29.3H-121c-1,0-1.8-0.8-1.8-1.8V-242c0-1,0.8-1.8,1.8-1.8h10.5v-11.9c0-3.1,2.1-5.9,5.1-6.8
			l10.8-3.2c1.1-0.3,2.3,0.5,2.3,1.7v20.3h14.1c1,0,1.8,0.8,1.8,1.8v13.9c0,1-0.8,1.8-1.8,1.8H-92.4z"/>
		<path class="st2" d="M-12.7-179.4L-43.1-218v42.9c0,1-0.8,1.8-1.8,1.8h-15.9c-1,0-1.8-0.8-1.8-1.8v-95c0-1,0.8-1.8,1.8-1.8h15.9
			c1,0,1.8,0.8,1.8,1.8v43.3l30.4-38.9c3-3.9,7.7-6.2,12.6-6.2h11c1.5,0,2.3,1.7,1.4,2.9l-35.7,46.6l35.7,46.3
			c0.9,1.2,0.1,2.9-1.4,2.9h-11C-5-173.3-9.6-175.6-12.7-179.4z"/>
		<path class="st2" d="M54.7-187.8c6.4,0,11.6-2.4,14.8-5.9c0.6-0.6,1.5-0.8,2.2-0.4l11.6,6.7c0.9,0.5,1.2,1.8,0.5,2.6
			c-6.7,8.6-16.8,13.4-29.5,13.4c-23.7,0-38.6-16.2-38.6-37.2s15.1-37.2,37.2-37.2c20.8,0,35.6,16.5,35.6,37.2
			c0,2.7-0.3,5.1-0.7,7.5H34.8C37.3-191.8,45.1-187.8,54.7-187.8z M70.4-215.2c-2.2-10.1-9.9-14.2-17.5-14.2
			c-9.7,0-16.3,5.2-18.5,14.2H70.4z"/>
		<path class="st2" d="M139-187.8c6.4,0,11.6-2.4,14.8-5.9c0.6-0.6,1.5-0.8,2.2-0.4l11.6,6.7c0.9,0.5,1.2,1.8,0.5,2.6
			c-6.7,8.6-16.8,13.4-29.5,13.4c-23.7,0-38.6-16.2-38.6-37.2s15.1-37.2,37.2-37.2c20.8,0,35.6,16.5,35.6,37.2
			c0,2.7-0.3,5.1-0.7,7.5h-53.1C121.6-191.8,129.4-187.8,139-187.8z M154.7-215.2c-2.2-10.1-9.9-14.2-17.5-14.2
			c-9.7,0-16.3,5.2-18.5,14.2H154.7z"/>
		<path class="st2" d="M262.4-208.5c0,21-15.5,37.2-34.4,37.2c-10.3,0-17.8-3.8-22.8-10.3v34.7c0,1-0.8,1.8-1.8,1.8h-14.6
			c-1,0-1.8-0.8-1.8-1.8V-242c0-1,0.8-1.8,1.8-1.8h14.6c1,0,1.8,0.8,1.8,1.8v6.5c5.1-6.5,12.5-10.3,22.8-10.3
			C246.9-245.7,262.4-229.5,262.4-208.5z M244.2-208.5c0-11.8-8.3-19.9-19.6-19.9c-11.1,0-19.4,8-19.4,19.9s8.3,19.9,19.4,19.9
			C235.9-188.7,244.2-196.7,244.2-208.5z"/>
	</g>
	<g>
		<path class="st0" d="M-344.4-141.9l-78.4-45.3c-2.8-1.6-4.4-4.5-4.4-7.7v-90.6c0-1.4-1.5-2.2-2.7-1.5l-16,9.3
			c-6,3.5-9.8,10-9.8,17v76.2c0,7,3.7,13.5,9.8,17l65.9,38.1c6.1,3.5,13.5,3.5,19.6,0l16-9.3C-343.3-139.5-343.3-141.2-344.4-141.9z
			"/>
		<path class="st0" d="M-408.6-195.4l33.8,19.6c2.8,1.6,6.1,1.6,8.9,0l33.8-19.6c2.8-1.6,4.4-4.5,4.4-7.7v-39.1
			c0-3.2-1.7-6.1-4.4-7.7l-33.8-19.6c-2.8-1.6-6.1-1.6-8.9,0l-8.4,4.9c-0.6,0.3-1.3-0.1-1.3-0.8l0-44.7c0-1.4-1.5-2.2-2.7-1.5
			l-21.4,12.4c-2.8,1.6-4.4,4.5-4.4,7.7l-0.1,88.5C-413-199.9-411.3-197-408.6-195.4z M-389-230.4c0-1.9,1-3.7,2.7-4.6l13.4-7.7
			c1.6-1,3.7-1,5.3,0l13.4,7.7c1.6,0.9,2.7,2.7,2.7,4.6v15.4c0,1.9-1,3.7-2.7,4.6l-13.4,7.7c-1.6,1-3.7,1-5.3,0l-13.4-7.7
			c-1.6-0.9-2.7-2.7-2.7-4.6V-230.4z"/>
		<path class="st0" d="M-294.6-277.8l-65.9-38.1c-2.8-1.6-5.8-2.5-8.9-2.6c-0.5,0-0.9,0.4-0.9,0.9v27.9c0,0.6,0.3,1.2,0.9,1.5
			l51.7,29.8c2.8,1.6,4.5,4.5,4.5,7.7v55.7c0,3.2-1.7,6.1-4.5,7.7l-35.6,20.6c-1.2,0.7-1.2,2.4,0,3.1l24,13.9c1.1,0.6,2.5,0.6,3.6,0
			l31.2-18c6.1-3.5,9.8-10,9.8-17v-76.2C-284.8-267.8-288.5-274.3-294.6-277.8z"/>
	</g>
</g>
<g>
	<g>
		<path class="st1" d="M93.2,348.9c0,12.4-10,21-22.5,21H41.3c-0.7,0-1.3-0.6-1.3-1.3v-69.7c0-0.7,0.6-1.3,1.3-1.3h27.2
			c12.2,0,22,8.3,22,20.3c0,6.2-2.6,11-6.8,14.5C89.5,335.7,93.2,341.4,93.2,348.9z M54.3,310.9v15.9h14.3c4.4,0,7.8-3.4,7.8-8
			c0-4.5-3.2-8-7.8-8L54.3,310.9L54.3,310.9z M79.1,348c0-4.9-3.5-8.5-8.4-8.5H54.3v17h16.4C75.6,356.6,79.1,352.9,79.1,348z"/>
		<path class="st1" d="M102.4,303.9c0-4.4,3.7-8.3,8.2-8.3c4.6,0,8.3,3.8,8.3,8.3s-3.7,8.2-8.3,8.2
			C106.1,312,102.4,308.3,102.4,303.9z M105.3,318.2H116c0.7,0,1.3,0.6,1.3,1.3v49c0,0.7-0.6,1.3-1.3,1.3h-10.7
			c-0.7,0-1.3-0.6-1.3-1.3v-49C104,318.8,104.6,318.2,105.3,318.2z"/>
		<path class="st1" d="M149.8,331v21.5c0,5.2,3.6,5.7,10.3,5.3c0.7,0,1.4,0.6,1.4,1.3v9.5c0,0.7-0.5,1.2-1.2,1.3
			c-17.8,1.7-23.8-3.8-23.8-17.5V331h-7.7c-0.7,0-1.3-0.6-1.3-1.3v-10.2c0-0.7,0.6-1.3,1.3-1.3h7.7v-8.8c0-2.3,1.5-4.3,3.7-5
			l7.9-2.4c0.8-0.2,1.7,0.4,1.7,1.2v14.9h10.4c0.7,0,1.3,0.6,1.3,1.3v10.2c0,0.7-0.6,1.3-1.3,1.3H149.8z"/>
		<path class="st1" d="M208.3,365.4L186,337.1v31.4c0,0.7-0.6,1.3-1.3,1.3H173c-0.7,0-1.3-0.6-1.3-1.3v-69.7c0-0.7,0.6-1.3,1.3-1.3
			h11.6c0.7,0,1.3,0.6,1.3,1.3v31.8l22.3-28.5c2.2-2.8,5.6-4.5,9.3-4.5h8.1c1.1,0,1.7,1.2,1,2.1l-26.2,34.2l26.2,34
			c0.7,0.9,0.1,2.1-1,2.1h-8.1C213.9,369.9,210.5,368.2,208.3,365.4z"/>
		<path class="st1" d="M257.6,359.3c4.7,0,8.5-1.8,10.9-4.4c0.4-0.5,1.1-0.6,1.6-0.3l8.5,4.9c0.7,0.4,0.9,1.3,0.4,1.9
			c-4.9,6.3-12.3,9.9-21.6,9.9c-17.4,0-28.3-11.9-28.3-27.3s11.1-27.3,27.3-27.3c15.3,0,26.1,12.1,26.1,27.3c0,2-0.2,3.7-0.5,5.5
			H243C244.9,356.4,250.6,359.3,257.6,359.3z M269.2,339.2c-1.6-7.4-7.2-10.4-12.8-10.4c-7.1,0-12,3.8-13.5,10.4H269.2z"/>
		<path class="st1" d="M319.4,359.3c4.7,0,8.5-1.8,10.9-4.4c0.4-0.5,1.1-0.6,1.6-0.3l8.5,4.9c0.7,0.4,0.9,1.3,0.4,1.9
			c-4.9,6.3-12.3,9.9-21.6,9.9c-17.4,0-28.3-11.9-28.3-27.3s11.1-27.3,27.3-27.3c15.3,0,26.1,12.1,26.1,27.3c0,2-0.2,3.7-0.5,5.5
			h-38.9C306.7,356.4,312.4,359.3,319.4,359.3z M331,339.2c-1.6-7.4-7.2-10.4-12.8-10.4c-7.1,0-12,3.8-13.5,10.4H331z"/>
		<path class="st1" d="M410,344.1c0,15.4-11.4,27.3-25.2,27.3c-7.5,0-13-2.8-16.7-7.5v25.5c0,0.7-0.6,1.3-1.3,1.3H356
			c-0.7,0-1.3-0.6-1.3-1.3v-69.7c0-0.7,0.6-1.3,1.3-1.3h10.7c0.7,0,1.3,0.6,1.3,1.3v4.8c3.7-4.8,9.2-7.5,16.7-7.5
			C398.6,316.8,410,328.7,410,344.1z M396.6,344.1c0-8.7-6.1-14.6-14.4-14.6c-8.2,0-14.3,5.9-14.3,14.6s6.1,14.6,14.3,14.6
			C390.5,358.6,396.6,352.7,396.6,344.1z"/>
	</g>
	<g>
		<path class="st1" d="M250.7,235.9l-78.3-45.2c-2.8-1.6-4.4-4.5-4.4-7.7V91.7c0-1-1.1-1.7-2-1.1l-16.7,9.6
			c-6.1,3.5-9.8,10-9.8,16.9v76.1c0,7,3.7,13.4,9.8,16.9l65.8,38c6.1,3.5,13.5,3.5,19.6,0l16-9.2
			C251.8,238.3,251.8,236.6,250.7,235.9z"/>
		<path class="st1" d="M186.6,182.4l33.8,19.5c2.8,1.6,6.1,1.6,8.9,0l33.8-19.5c2.8-1.6,4.4-4.5,4.4-7.7v-39.1
			c0-3.2-1.7-6.1-4.4-7.7l-33.8-19.5c-2.8-1.6-6.1-1.6-8.9,0l-8.4,4.9c-0.6,0.3-1.3-0.1-1.3-0.8l0.1-44.7c0-1.4-1.5-2.2-2.7-1.5
			l-21.4,12.4c-2.8,1.6-4.4,4.5-4.4,7.7l-0.1,88.4C182.1,177.9,183.8,180.8,186.6,182.4z M206.2,147.4c0-1.9,1-3.7,2.7-4.6l13.3-7.7
			c1.6-1,3.7-1,5.3,0l13.3,7.7c1.6,1,2.7,2.7,2.7,4.6v15.4c0,1.9-1,3.7-2.7,4.6l-13.3,7.7c-1.6,1-3.7,1-5.3,0l-13.3-7.7
			c-1.6-1-2.7-2.7-2.7-4.6V147.4z"/>
		<path class="st1" d="M300.4,100.1l-65.8-38c-2.8-1.6-5.8-2.5-8.9-2.6c-0.5,0-0.9,0.4-0.9,0.9v27.9c0,0.6,0.3,1.2,0.9,1.5
			l51.6,29.8c2.8,1.6,4.4,4.5,4.4,7.7v55.6c0,3.2-1.7,6.1-4.4,7.7l-35.6,20.6c-1.2,0.7-1.2,2.4,0,3.1l24,13.9c1.1,0.6,2.5,0.6,3.6,0
			l31.1-18c6.1-3.5,9.8-10,9.8-16.9v-76.1C310.2,110.1,306.5,103.6,300.4,100.1z"/>
	</g>
</g>
<g>
	<g>
		<path class="st2" d="M-403.4,348.9c0,12.4-10,21-22.5,21h-29.4c-0.7,0-1.3-0.6-1.3-1.3v-69.7c0-0.7,0.6-1.3,1.3-1.3h27.2
			c12.2,0,22,8.3,22,20.3c0,6.2-2.6,11-6.8,14.5C-407.2,335.7-403.4,341.4-403.4,348.9z M-442.4,310.9v15.9h14.3
			c4.4,0,7.8-3.4,7.8-8c0-4.5-3.2-8-7.8-8L-442.4,310.9L-442.4,310.9z M-417.6,348c0-4.9-3.5-8.5-8.4-8.5h-16.4v17h16.4
			C-421.1,356.6-417.6,352.9-417.6,348z"/>
		<path class="st2" d="M-394.2,303.9c0-4.4,3.7-8.3,8.2-8.3c4.6,0,8.3,3.8,8.3,8.3s-3.7,8.2-8.3,8.2
			C-390.5,312-394.2,308.3-394.2,303.9z M-391.4,318.2h10.7c0.7,0,1.3,0.6,1.3,1.3v49c0,0.7-0.6,1.3-1.3,1.3h-10.7
			c-0.7,0-1.3-0.6-1.3-1.3v-49C-392.7,318.8-392.1,318.2-391.4,318.2z"/>
		<path class="st2" d="M-346.9,331v21.5c0,5.2,3.6,5.7,10.3,5.3c0.7,0,1.4,0.6,1.4,1.3v9.5c0,0.7-0.5,1.2-1.2,1.3
			c-17.8,1.7-23.8-3.8-23.8-17.5V331h-7.7c-0.7,0-1.3-0.6-1.3-1.3v-10.2c0-0.7,0.6-1.3,1.3-1.3h7.7v-8.8c0-2.3,1.5-4.3,3.7-5
			l7.9-2.4c0.8-0.2,1.7,0.4,1.7,1.2v14.9h10.4c0.7,0,1.3,0.6,1.3,1.3v10.2c0,0.7-0.6,1.3-1.3,1.3H-346.9z"/>
		<path class="st2" d="M-288.4,365.4l-22.3-28.3v31.4c0,0.7-0.6,1.3-1.3,1.3h-11.6c-0.7,0-1.3-0.6-1.3-1.3v-69.7
			c0-0.7,0.6-1.3,1.3-1.3h11.6c0.7,0,1.3,0.6,1.3,1.3v31.8l22.3-28.5c2.2-2.8,5.6-4.5,9.3-4.5h8.1c1.1,0,1.7,1.2,1,2.1l-26.2,34.2
			l26.2,34c0.7,0.9,0.1,2.1-1,2.1h-8.1C-282.8,369.9-286.2,368.2-288.4,365.4z"/>
		<path class="st2" d="M-239,359.3c4.7,0,8.5-1.8,10.9-4.4c0.4-0.5,1.1-0.6,1.6-0.3l8.5,4.9c0.7,0.4,0.9,1.3,0.4,1.9
			c-4.9,6.3-12.3,9.9-21.6,9.9c-17.4,0-28.3-11.9-28.3-27.3s11.1-27.3,27.3-27.3c15.3,0,26.1,12.1,26.1,27.3c0,2-0.2,3.7-0.5,5.5
			h-38.9C-251.7,356.4-246.1,359.3-239,359.3z M-227.5,339.2c-1.6-7.4-7.2-10.4-12.8-10.4c-7.1,0-12,3.8-13.5,10.4H-227.5z"/>
		<path class="st2" d="M-177.2,359.3c4.7,0,8.5-1.8,10.9-4.4c0.4-0.5,1.1-0.6,1.6-0.3l8.5,4.9c0.7,0.4,0.9,1.3,0.4,1.9
			c-4.9,6.3-12.3,9.9-21.6,9.9c-17.4,0-28.3-11.9-28.3-27.3s11.1-27.3,27.3-27.3c15.3,0,26.1,12.1,26.1,27.3c0,2-0.2,3.7-0.5,5.5
			h-38.9C-189.9,356.4-184.2,359.3-177.2,359.3z M-165.7,339.2c-1.6-7.4-7.2-10.4-12.8-10.4c-7.1,0-12,3.8-13.5,10.4H-165.7z"/>
		<path class="st2" d="M-86.7,344.1c0,15.4-11.4,27.3-25.2,27.3c-7.5,0-13-2.8-16.7-7.5v25.5c0,0.7-0.6,1.3-1.3,1.3h-10.7
			c-0.7,0-1.3-0.6-1.3-1.3v-69.7c0-0.7,0.6-1.3,1.3-1.3h10.7c0.7,0,1.3,0.6,1.3,1.3v4.8c3.7-4.8,9.2-7.5,16.7-7.5
			C-98.1,316.8-86.7,328.7-86.7,344.1z M-100,344.1c0-8.7-6.1-14.6-14.4-14.6c-8.2,0-14.3,5.9-14.3,14.6s6.1,14.6,14.3,14.6
			C-106.1,358.6-100,352.7-100,344.1z"/>
	</g>
	<g>
		<path class="st0" d="M-246,235.9l-78.3-45.2c-2.8-1.6-4.4-4.5-4.4-7.7V91.7c0-1-1.1-1.7-2-1.1l-16.7,9.6c-6.1,3.5-9.8,10-9.8,16.9
			v76.1c0,7,3.7,13.4,9.8,16.9l65.8,38c6.1,3.5,13.5,3.5,19.6,0l16-9.2C-244.8,238.3-244.8,236.6-246,235.9z"/>
		<path class="st0" d="M-310.1,182.4l33.8,19.5c2.8,1.6,6.1,1.6,8.9,0l33.8-19.5c2.8-1.6,4.4-4.5,4.4-7.7v-39.1
			c0-3.2-1.7-6.1-4.4-7.7l-33.8-19.5c-2.8-1.6-6.1-1.6-8.9,0l-8.4,4.9c-0.6,0.3-1.3-0.1-1.3-0.8l0.1-44.7c0-1.4-1.5-2.2-2.7-1.5
			L-310,78.6c-2.8,1.6-4.4,4.5-4.4,7.7l-0.1,88.4C-314.5,177.9-312.8,180.8-310.1,182.4z M-290.5,147.4c0-1.9,1-3.7,2.7-4.6
			l13.3-7.7c1.6-1,3.7-1,5.3,0l13.3,7.7c1.6,1,2.7,2.7,2.7,4.6v15.4c0,1.9-1,3.7-2.7,4.6l-13.3,7.7c-1.6,1-3.7,1-5.3,0l-13.3-7.7
			c-1.6-1-2.7-2.7-2.7-4.6V147.4z"/>
		<path class="st0" d="M-196.2,100.1l-65.8-38c-2.8-1.6-5.8-2.5-8.9-2.6c-0.5,0-0.9,0.4-0.9,0.9v27.9c0,0.6,0.3,1.2,0.9,1.5
			l51.6,29.8c2.8,1.6,4.4,4.5,4.4,7.7v55.6c0,3.2-1.7,6.1-4.4,7.7l-35.6,20.6c-1.2,0.7-1.2,2.4,0,3.1l24,13.9c1.1,0.6,2.5,0.6,3.6,0
			l31.1-18c6.1-3.5,9.8-10,9.8-16.9v-76.1C-186.4,110.1-190.2,103.6-196.2,100.1z"/>
	</g>
</g>
</svg>
